<svg width="111" height="50" viewBox="0 0 111 50" fill="none" xmlns="http://www.w3.org/2000/svg">
<path d="M1.09509 1.27275V18.048H5.70262V8.31383C5.70262 7.49183 5.82159 6.83207 6.05954 6.33454C6.29749 5.81538 6.5787 5.42601 6.90317 5.16644C7.24928 4.88522 7.59538 4.70136 7.94149 4.61483C8.30922 4.50667 8.60125 4.45259 8.81756 4.45259C9.55304 4.45259 10.1046 4.58238 10.4724 4.84196C10.8617 5.07991 11.1321 5.40438 11.2836 5.81538C11.4566 6.22638 11.554 6.68065 11.5756 7.17817C11.5972 7.65407 11.608 8.14078 11.608 8.6383V18.048H16.2156V8.7032C16.2156 8.18404 16.248 7.6757 16.3129 7.17817C16.3994 6.65901 16.5509 6.20475 16.7672 5.81538C17.0051 5.40438 17.3188 5.07991 17.7081 4.84196C18.1191 4.58238 18.6491 4.45259 19.2981 4.45259C19.947 4.45259 20.4554 4.56075 20.8231 4.77707C21.2125 4.99338 21.5045 5.28541 21.6992 5.65315C21.8939 6.02088 22.0128 6.45351 22.0561 6.95104C22.0994 7.44857 22.121 7.97854 22.121 8.54096V18.048H26.7285V6.82125C26.7285 5.73967 26.5771 4.82033 26.2742 4.06323C25.9714 3.28449 25.5496 2.65717 25.0088 2.18128C24.468 1.70538 23.8191 1.35928 23.062 1.14296C22.3049 0.926647 21.4829 0.818489 20.596 0.818489C19.4279 0.818489 18.4112 1.0997 17.5459 1.66212C16.7023 2.22454 16.0317 2.87349 15.5342 3.60896C15.0799 2.57065 14.4093 1.84599 13.5224 1.43499C12.6572 1.02399 11.6946 0.818489 10.6346 0.818489C9.53141 0.818489 8.54717 1.05644 7.68191 1.53233C6.83828 2.00823 6.11362 2.6788 5.50793 3.54407H5.44304V1.27275H1.09509Z" fill="white"/>
<path d="M28.2292 6.43188C28.2941 5.3503 28.5645 4.45259 29.0404 3.73875C29.5163 3.02491 30.122 2.45167 30.8574 2.01904C31.5929 1.58641 32.4149 1.28357 33.3234 1.11052C34.2536 0.915831 35.1838 0.818489 36.1139 0.818489C36.9575 0.818489 37.812 0.883384 38.6772 1.01317C39.5425 1.12133 40.3321 1.34846 41.0459 1.69457C41.7597 2.04067 42.3438 2.52738 42.7981 3.1547C43.2523 3.76038 43.4795 4.57157 43.4795 5.58825V14.3166C43.4795 15.0737 43.5227 15.7984 43.6092 16.4906C43.6958 17.1828 43.8472 17.7019 44.0635 18.048H39.3911C39.3046 17.7885 39.2289 17.5289 39.164 17.2693C39.1207 16.9881 39.0882 16.7069 39.0666 16.4257C38.3311 17.1828 37.4659 17.7127 36.4708 18.0156C35.4758 18.3184 34.4591 18.4699 33.4208 18.4699C32.6204 18.4699 31.8741 18.3725 31.1819 18.1778C30.4897 17.9831 29.884 17.6803 29.3649 17.2693C28.8457 16.8583 28.4347 16.3391 28.1319 15.7118C27.8506 15.0845 27.71 14.3382 27.71 13.473C27.71 12.5212 27.8723 11.7424 28.1968 11.1367C28.5429 10.5094 28.9755 10.0119 29.4946 9.64417C30.0354 9.27643 30.6411 9.00604 31.3117 8.83299C32.0039 8.6383 32.6961 8.48688 33.3883 8.37872C34.0805 8.27057 34.7619 8.18404 35.4325 8.11915C36.1031 8.05425 36.698 7.95691 37.2171 7.82712C37.7363 7.69733 38.1473 7.51346 38.4501 7.27551C38.753 7.01593 38.8936 6.6482 38.8719 6.1723C38.8719 5.67478 38.7854 5.28541 38.6124 5.0042C38.4609 4.70136 38.2446 4.47423 37.9634 4.3228C37.7038 4.14975 37.3902 4.04159 37.0224 3.99833C36.6763 3.93344 36.2978 3.90099 35.8868 3.90099C34.9782 3.90099 34.2644 4.09567 33.7452 4.48504C33.2261 4.87441 32.9232 5.52336 32.8367 6.43188H28.2292ZM38.8719 9.83885C38.6772 10.0119 38.4285 10.1525 38.1256 10.2607C37.8444 10.3472 37.5308 10.4229 37.1847 10.4878C36.8602 10.5527 36.5141 10.6068 36.1464 10.65C35.7786 10.6933 35.4109 10.7474 35.0431 10.8123C34.697 10.8772 34.3509 10.9637 34.0048 11.0719C33.6804 11.18 33.3883 11.3314 33.1287 11.5261C32.8908 11.6992 32.6961 11.9263 32.5447 12.2075C32.3933 12.4887 32.3176 12.8456 32.3176 13.2783C32.3176 13.6893 32.3933 14.0354 32.5447 14.3166C32.6961 14.5978 32.9016 14.8249 33.1612 14.998C33.4208 15.1494 33.7236 15.2576 34.0697 15.3225C34.4158 15.3874 34.7727 15.4198 35.1405 15.4198C36.049 15.4198 36.752 15.2684 37.2496 14.9655C37.7471 14.6627 38.1148 14.3058 38.3528 13.8948C38.5907 13.4621 38.7313 13.0295 38.7746 12.5969C38.8395 12.1643 38.8719 11.8181 38.8719 11.5586V9.83885Z" fill="white"/>
<path d="M44.9142 6.43188C44.9791 5.3503 45.2495 4.45259 45.7254 3.73875C46.2013 3.02491 46.807 2.45167 47.5425 2.01904C48.278 1.58641 49.0999 1.28357 50.0085 1.11052C50.9386 0.915831 51.8688 0.818489 52.799 0.818489C53.6426 0.818489 54.497 0.883384 55.3623 1.01317C56.2276 1.12133 57.0171 1.34846 57.7309 1.69457C58.4448 2.04067 59.0288 2.52738 59.4831 3.1547C59.9374 3.76038 60.1645 4.57157 60.1645 5.58825V14.3166C60.1645 15.0737 60.2078 15.7984 60.2943 16.4906C60.3808 17.1828 60.5322 17.7019 60.7486 18.048H56.0761C55.9896 17.7885 55.9139 17.5289 55.849 17.2693C55.8057 16.9881 55.7733 16.7069 55.7517 16.4257C55.0162 17.1828 54.1509 17.7127 53.1559 18.0156C52.1608 18.3184 51.1441 18.4699 50.1058 18.4699C49.3054 18.4699 48.5592 18.3725 47.867 18.1778C47.1747 17.9831 46.5691 17.6803 46.0499 17.2693C45.5307 16.8583 45.1197 16.3391 44.8169 15.7118C44.5357 15.0845 44.3951 14.3382 44.3951 13.473C44.3951 12.5212 44.5573 11.7424 44.8818 11.1367C45.2279 10.5094 45.6605 10.0119 46.1797 9.64417C46.7205 9.27643 47.3262 9.00604 47.9967 8.83299C48.6889 8.6383 49.3812 8.48688 50.0734 8.37872C50.7656 8.27057 51.447 8.18404 52.1176 8.11915C52.7881 8.05425 53.383 7.95691 53.9022 7.82712C54.4213 7.69733 54.8323 7.51346 55.1352 7.27551C55.438 7.01593 55.5786 6.6482 55.557 6.1723C55.557 5.67478 55.4704 5.28541 55.2974 5.0042C55.146 4.70136 54.9297 4.47423 54.6484 4.3228C54.3889 4.14975 54.0752 4.04159 53.7075 3.99833C53.3614 3.93344 52.9828 3.90099 52.5718 3.90099C51.6633 3.90099 50.9494 4.09567 50.4303 4.48504C49.9111 4.87441 49.6083 5.52336 49.5218 6.43188H44.9142ZM55.557 9.83885C55.3623 10.0119 55.1135 10.1525 54.8107 10.2607C54.5295 10.3472 54.2158 10.4229 53.8697 10.4878C53.5452 10.5527 53.1991 10.6068 52.8314 10.65C52.4637 10.6933 52.0959 10.7474 51.7282 10.8123C51.3821 10.8772 51.036 10.9637 50.6899 11.0719C50.3654 11.18 50.0734 11.3314 49.8138 11.5261C49.5758 11.6992 49.3812 11.9263 49.2297 12.2075C49.0783 12.4887 49.0026 12.8456 49.0026 13.2783C49.0026 13.6893 49.0783 14.0354 49.2297 14.3166C49.3812 14.5978 49.5867 14.8249 49.8462 14.998C50.1058 15.1494 50.4087 15.2576 50.7548 15.3225C51.1009 15.3874 51.4578 15.4198 51.8255 15.4198C52.7341 15.4198 53.4371 15.2684 53.9346 14.9655C54.4321 14.6627 54.7999 14.3058 55.0378 13.8948C55.2758 13.4621 55.4164 13.0295 55.4596 12.5969C55.5245 12.1643 55.557 11.8181 55.557 11.5586V9.83885Z" fill="white"/>
<path d="M61.794 1.27275V18.048H66.4015V9.2548C66.4015 7.54591 66.6827 6.32372 67.2451 5.58825C67.8075 4.83115 68.7161 4.45259 69.9707 4.45259C71.0739 4.45259 71.8418 4.7987 72.2745 5.49091C72.7071 6.16149 72.9234 7.18899 72.9234 8.57341V18.048H77.5309V7.72978C77.5309 6.69146 77.4336 5.75049 77.2389 4.90686C77.0659 4.04159 76.7522 3.31694 76.2979 2.73288C75.8437 2.1272 75.2164 1.66212 74.416 1.33765C73.6372 0.991541 72.6314 0.818489 71.3984 0.818489C70.425 0.818489 69.4732 1.04562 68.543 1.49988C67.6129 1.93251 66.8558 2.63554 66.2717 3.60896H66.1744V1.27275H61.794Z" fill="white"/>
<path d="M82.6503 12.5969H78.2699C78.3131 13.7217 78.5619 14.6627 79.0162 15.4198C79.4921 16.1553 80.0869 16.7501 80.8008 17.2044C81.5362 17.6587 82.3691 17.9831 83.2992 18.1778C84.2294 18.3725 85.1812 18.4699 86.1546 18.4699C87.1064 18.4699 88.0365 18.3725 88.9451 18.1778C89.8752 18.0048 90.6972 17.6911 91.4111 17.2369C92.1249 16.7826 92.6981 16.1877 93.1308 15.4522C93.585 14.6951 93.8122 13.765 93.8122 12.6618C93.8122 11.883 93.6607 11.2341 93.3579 10.7149C93.0551 10.1741 92.6549 9.7307 92.1573 9.38459C91.6598 9.01686 91.0866 8.72483 90.4376 8.50851C89.8103 8.2922 89.1614 8.10833 88.4908 7.95691C87.8419 7.80549 87.2037 7.66488 86.5764 7.53509C85.9491 7.4053 85.3867 7.2647 84.8891 7.11328C84.4132 6.94022 84.0239 6.72391 83.721 6.46433C83.4182 6.20475 83.2668 5.86946 83.2668 5.45846C83.2668 5.11236 83.3533 4.84196 83.5263 4.64728C83.6994 4.43096 83.9049 4.26873 84.1428 4.16057C84.4024 4.05241 84.6836 3.98751 84.9865 3.96588C85.2893 3.92262 85.5705 3.90099 85.8301 3.90099C86.6521 3.90099 87.366 4.06323 87.9716 4.3877C88.5773 4.69054 88.9126 5.28541 88.9775 6.1723H93.3579C93.2714 5.13399 93.001 4.27954 92.5467 3.60896C92.1141 2.91675 91.5625 2.36515 90.8919 1.95415C90.2213 1.54315 89.4534 1.25112 88.5881 1.07807C87.7445 0.905016 86.8684 0.818489 85.9599 0.818489C85.0514 0.818489 84.1645 0.905016 83.2992 1.07807C82.434 1.22949 81.6552 1.5107 80.963 1.9217C80.2708 2.31107 79.7084 2.85186 79.2757 3.54407C78.8647 4.23628 78.6592 5.12317 78.6592 6.20475C78.6592 6.94022 78.8107 7.56754 79.1135 8.0867C79.4164 8.58423 79.8165 9.00604 80.3141 9.35215C80.8116 9.67662 81.374 9.94701 82.0013 10.1633C82.6503 10.358 83.31 10.5311 83.9806 10.6825C85.6246 11.0286 86.9009 11.3747 87.8094 11.7208C88.7396 12.0669 89.2046 12.5861 89.2046 13.2783C89.2046 13.6893 89.1073 14.0354 88.9126 14.3166C88.7179 14.5762 88.4692 14.7925 88.1663 14.9655C87.8851 15.117 87.5606 15.2359 87.1929 15.3225C86.8468 15.3874 86.5115 15.4198 86.187 15.4198C85.7328 15.4198 85.2893 15.3657 84.8567 15.2576C84.4457 15.1494 84.0779 14.9872 83.7535 14.7709C83.429 14.5329 83.1586 14.2409 82.9423 13.8948C82.7476 13.527 82.6503 13.0944 82.6503 12.5969Z" fill="white"/>
<path d="M94.3673 6.43188C94.4322 5.3503 94.7026 4.45259 95.1785 3.73875C95.6544 3.02491 96.2601 2.45167 96.9955 2.01904C97.731 1.58641 98.553 1.28357 99.4615 1.11052C100.392 0.915831 101.322 0.818489 102.252 0.818489C103.096 0.818489 103.95 0.883384 104.815 1.01317C105.681 1.12133 106.47 1.34846 107.184 1.69457C107.898 2.04067 108.482 2.52738 108.936 3.1547C109.39 3.76038 109.618 4.57157 109.618 5.58825V14.3166C109.618 15.0737 109.661 15.7984 109.747 16.4906C109.834 17.1828 109.985 17.7019 110.202 18.048H105.529C105.443 17.7885 105.367 17.5289 105.302 17.2693C105.259 16.9881 105.226 16.7069 105.205 16.4257C104.469 17.1828 103.604 17.7127 102.609 18.0156C101.614 18.3184 100.597 18.4699 99.5589 18.4699C98.7585 18.4699 98.0122 18.3725 97.32 18.1778C96.6278 17.9831 96.0221 17.6803 95.503 17.2693C94.9838 16.8583 94.5728 16.3391 94.27 15.7118C93.9888 15.0845 93.8482 14.3382 93.8482 13.473C93.8482 12.5212 94.0104 11.7424 94.3349 11.1367C94.681 10.5094 95.1136 10.0119 95.6328 9.64417C96.1736 9.27643 96.7792 9.00604 97.4498 8.83299C98.142 8.6383 98.8342 8.48688 99.5264 8.37872C100.219 8.27057 100.9 8.18404 101.571 8.11915C102.241 8.05425 102.836 7.95691 103.355 7.82712C103.874 7.69733 104.285 7.51346 104.588 7.27551C104.891 7.01593 105.032 6.6482 105.01 6.1723C105.01 5.67478 104.924 5.28541 104.75 5.0042C104.599 4.70136 104.383 4.47423 104.102 4.3228C103.842 4.14975 103.528 4.04159 103.161 3.99833C102.814 3.93344 102.436 3.90099 102.025 3.90099C101.116 3.90099 100.403 4.09567 99.8834 4.48504C99.3642 4.87441 99.0614 5.52336 98.9748 6.43188H94.3673ZM105.01 9.83885C104.815 10.0119 104.567 10.1525 104.264 10.2607C103.983 10.3472 103.669 10.4229 103.323 10.4878C102.998 10.5527 102.652 10.6068 102.284 10.65C101.917 10.6933 101.549 10.7474 101.181 10.8123C100.835 10.8772 100.489 10.9637 100.143 11.0719C99.8185 11.18 99.5264 11.3314 99.2669 11.5261C99.0289 11.6992 98.8342 11.9263 98.6828 12.2075C98.5314 12.4887 98.4557 12.8456 98.4557 13.2783C98.4557 13.6893 98.5314 14.0354 98.6828 14.3166C98.8342 14.5978 99.0397 14.8249 99.2993 14.998C99.5589 15.1494 99.8617 15.2576 100.208 15.3225C100.554 15.3874 100.911 15.4198 101.279 15.4198C102.187 15.4198 102.89 15.2684 103.388 14.9655C103.885 14.6627 104.253 14.3058 104.491 13.8948C104.729 13.4621 104.869 13.0295 104.913 12.5969C104.978 12.1643 105.01 11.8181 105.01 11.5586V9.83885Z" fill="white"/>
<path d="M12.8226 32.6666H17.3328C17.2679 31.585 17.0083 30.6549 16.554 29.8761C16.0998 29.0758 15.5049 28.416 14.7694 27.8968C14.0556 27.3561 13.2336 26.9559 12.3034 26.6963C11.3949 26.4367 10.4431 26.3069 9.44806 26.3069C8.08527 26.3069 6.8739 26.5341 5.81396 26.9883C4.75401 27.4426 3.8563 28.0807 3.12083 28.9027C2.38535 29.7031 1.82293 30.6657 1.43356 31.7905C1.06583 32.8937 0.881958 34.0943 0.881958 35.3922C0.881958 36.6468 1.08746 37.8041 1.49846 38.8641C1.90946 39.9024 2.48269 40.8001 3.21817 41.5572C3.95364 42.3143 4.84054 42.9092 5.87885 43.3418C6.9388 43.7528 8.09609 43.9583 9.35072 43.9583C11.5788 43.9583 13.4066 43.3742 14.8343 42.2061C16.262 41.038 17.1273 39.34 17.4301 37.1119H12.9848C12.8334 38.1502 12.4549 38.983 11.8492 39.6103C11.2651 40.216 10.4215 40.5189 9.31827 40.5189C8.60443 40.5189 7.99875 40.3566 7.50122 40.0322C7.00369 39.7077 6.60351 39.2967 6.30067 38.7992C6.01946 38.28 5.81396 37.7068 5.68417 37.0795C5.55438 36.4521 5.48948 35.8356 5.48948 35.23C5.48948 34.6026 5.55438 33.9753 5.68417 33.348C5.81396 32.6991 6.03027 32.115 6.33312 31.5958C6.65759 31.0551 7.06859 30.6224 7.56611 30.298C8.06364 29.9518 8.68014 29.7788 9.41562 29.7788C11.3841 29.7788 12.5197 30.7414 12.8226 32.6666Z" fill="white"/>
<path d="M17.8915 31.9203C17.9564 30.8387 18.2268 29.941 18.7027 29.2272C19.1786 28.5133 19.7842 27.9401 20.5197 27.5075C21.2552 27.0748 22.0772 26.772 22.9857 26.599C23.9159 26.4043 24.846 26.3069 25.7762 26.3069C26.6198 26.3069 27.4743 26.3718 28.3395 26.5016C29.2048 26.6098 29.9943 26.8369 30.7082 27.183C31.422 27.5291 32.0061 28.0158 32.4603 28.6431C32.9146 29.2488 33.1417 30.06 33.1417 31.0767V39.805C33.1417 40.5621 33.185 41.2868 33.2715 41.979C33.3581 42.6712 33.5095 43.1904 33.7258 43.5365H29.0534C28.9668 43.2769 28.8911 43.0173 28.8262 42.7577C28.783 42.4765 28.7505 42.1953 28.7289 41.9141C27.9934 42.6712 27.1282 43.2012 26.1331 43.504C25.1381 43.8069 24.1214 43.9583 23.0831 43.9583C22.2827 43.9583 21.5364 43.8609 20.8442 43.6663C20.152 43.4716 19.5463 43.1687 19.0271 42.7577C18.508 42.3467 18.097 41.8276 17.7941 41.2003C17.5129 40.5729 17.3723 39.8267 17.3723 38.9614C17.3723 38.0096 17.5346 37.2309 17.859 36.6252C18.2051 35.9979 18.6378 35.5003 19.1569 35.1326C19.6977 34.7649 20.3034 34.4945 20.974 34.3214C21.6662 34.1267 22.3584 33.9753 23.0506 33.8672C23.7428 33.759 24.4242 33.6725 25.0948 33.6076C25.7654 33.5427 26.3602 33.4453 26.8794 33.3156C27.3986 33.1858 27.8096 33.0019 28.1124 32.764C28.4152 32.5044 28.5558 32.1366 28.5342 31.6607C28.5342 31.1632 28.4477 30.7738 28.2746 30.4926C28.1232 30.1898 27.9069 29.9627 27.6257 29.8112C27.3661 29.6382 27.0524 29.53 26.6847 29.4868C26.3386 29.4219 25.9601 29.3894 25.5491 29.3894C24.6405 29.3894 23.9267 29.5841 23.4075 29.9735C22.8884 30.3628 22.5855 31.0118 22.499 31.9203H17.8915ZM28.5342 35.3273C28.3395 35.5003 28.0908 35.641 27.7879 35.7491C27.5067 35.8356 27.1931 35.9113 26.8469 35.9762C26.5225 36.0411 26.1764 36.0952 25.8086 36.1385C25.4409 36.1817 25.0732 36.2358 24.7054 36.3007C24.3593 36.3656 24.0132 36.4521 23.6671 36.5603C23.3426 36.6685 23.0506 36.8199 22.791 37.0146C22.5531 37.1876 22.3584 37.4147 22.207 37.696C22.0556 37.9772 21.9798 38.3341 21.9798 38.7667C21.9798 39.1777 22.0556 39.5238 22.207 39.805C22.3584 40.0862 22.5639 40.3134 22.8235 40.4864C23.0831 40.6378 23.3859 40.746 23.732 40.8109C24.0781 40.8758 24.435 40.9082 24.8028 40.9082C25.7113 40.9082 26.4143 40.7568 26.9118 40.454C27.4094 40.1511 27.7771 39.7942 28.0151 39.3832C28.253 38.9506 28.3936 38.518 28.4369 38.0853C28.5018 37.6527 28.5342 37.3066 28.5342 37.047V35.3273Z" fill="white"/>
<path d="M43.24 40.5189C42.5045 40.5189 41.8772 40.3675 41.358 40.0646C40.8389 39.7618 40.417 39.3724 40.0926 38.8965C39.7897 38.399 39.5626 37.8257 39.4112 37.1768C39.2814 36.5278 39.2165 35.8681 39.2165 35.1975C39.2165 34.5053 39.2814 33.8347 39.4112 33.1858C39.541 32.5368 39.7573 31.9636 40.0601 31.4661C40.3846 30.9685 40.7956 30.5683 41.2931 30.2655C41.8123 29.941 42.4504 29.7788 43.2075 29.7788C43.943 29.7788 44.5595 29.941 45.057 30.2655C45.5762 30.5683 45.998 30.9793 46.3225 31.4985C46.6469 31.996 46.8741 32.5693 47.0039 33.2182C47.1553 33.8672 47.231 34.5269 47.231 35.1975C47.231 35.8681 47.1661 36.5278 47.0363 37.1768C46.9065 37.8257 46.6794 38.399 46.3549 38.8965C46.0521 39.3724 45.6411 39.7618 45.1219 40.0646C44.6244 40.3675 43.9971 40.5189 43.24 40.5189ZM34.7712 26.7612V49.4094H39.3787V41.4598H39.4436C40.006 42.2818 40.7199 42.9092 41.5851 43.3418C42.472 43.7528 43.4346 43.9583 44.473 43.9583C45.706 43.9583 46.7767 43.7203 47.6852 43.2444C48.6154 42.7686 49.3833 42.1304 49.989 41.3301C50.6163 40.5297 51.0814 39.6103 51.3843 38.572C51.6871 37.5337 51.8385 36.4521 51.8385 35.3273C51.8385 34.1376 51.6871 33.0019 51.3843 31.9203C51.0814 30.8171 50.6163 29.8545 49.989 29.0325C49.3617 28.2105 48.5721 27.5507 47.6204 27.0532C46.6686 26.5557 45.5329 26.3069 44.2134 26.3069C43.1751 26.3069 42.2233 26.5124 41.358 26.9234C40.4928 27.3344 39.7789 27.9942 39.2165 28.9027H39.1516V26.7612H34.7712Z" fill="white"/>
<path d="M57.3977 24.1654V20.3691H52.7901V24.1654H57.3977ZM52.7901 26.7612V43.5365H57.3977V26.7612H52.7901Z" fill="white"/>
<path d="M64.9194 26.7612V21.7318H60.3118V26.7612H57.5214V29.8437H60.3118V39.7401C60.3118 40.5838 60.4524 41.2652 60.7337 41.7843C61.0149 42.3035 61.3934 42.7037 61.8693 42.9849C62.3668 43.2661 62.9293 43.45 63.5566 43.5365C64.2055 43.6446 64.8869 43.6987 65.6008 43.6987C66.055 43.6987 66.5201 43.6879 66.996 43.6663C67.4719 43.6446 67.9045 43.6014 68.2939 43.5365V39.9673C68.0776 40.0105 67.8504 40.043 67.6125 40.0646C67.3746 40.0862 67.1258 40.0971 66.8662 40.0971C66.0875 40.0971 65.5683 39.9673 65.3087 39.7077C65.0492 39.4481 64.9194 38.929 64.9194 38.1502V29.8437H68.2939V26.7612H64.9194Z" fill="white"/>
<path d="M68.3446 31.9203C68.4095 30.8387 68.6799 29.941 69.1558 29.2272C69.6317 28.5133 70.2374 27.9401 70.9728 27.5075C71.7083 27.0748 72.5303 26.772 73.4388 26.599C74.369 26.4043 75.2991 26.3069 76.2293 26.3069C77.0729 26.3069 77.9274 26.3718 78.7926 26.5016C79.6579 26.6098 80.4475 26.8369 81.1613 27.183C81.8751 27.5291 82.4592 28.0158 82.9135 28.6431C83.3677 29.2488 83.5948 30.06 83.5948 31.0767V39.805C83.5948 40.5621 83.6381 41.2868 83.7246 41.979C83.8112 42.6712 83.9626 43.1904 84.1789 43.5365H79.5065C79.42 43.2769 79.3442 43.0173 79.2794 42.7577C79.2361 42.4765 79.2036 42.1953 79.182 41.9141C78.4465 42.6712 77.5813 43.2012 76.5862 43.504C75.5912 43.8069 74.5745 43.9583 73.5362 43.9583C72.7358 43.9583 71.9895 43.8609 71.2973 43.6663C70.6051 43.4716 69.9994 43.1687 69.4802 42.7577C68.9611 42.3467 68.5501 41.8276 68.2472 41.2003C67.966 40.5729 67.8254 39.8267 67.8254 38.9614C67.8254 38.0096 67.9877 37.2309 68.3121 36.6252C68.6582 35.9979 69.0909 35.5003 69.61 35.1326C70.1508 34.7649 70.7565 34.4945 71.4271 34.3214C72.1193 34.1267 72.8115 33.9753 73.5037 33.8672C74.1959 33.759 74.8773 33.6725 75.5479 33.6076C76.2185 33.5427 76.8133 33.4453 77.3325 33.3156C77.8517 33.1858 78.2627 33.0019 78.5655 32.764C78.8683 32.5044 79.0089 32.1366 78.9873 31.6607C78.9873 31.1632 78.9008 30.7738 78.7277 30.4926C78.5763 30.1898 78.36 29.9627 78.0788 29.8112C77.8192 29.6382 77.5056 29.53 77.1378 29.4868C76.7917 29.4219 76.4132 29.3894 76.0022 29.3894C75.0936 29.3894 74.3798 29.5841 73.8606 29.9735C73.3415 30.3628 73.0386 31.0118 72.9521 31.9203H68.3446ZM78.9873 35.3273C78.7926 35.5003 78.5439 35.641 78.241 35.7491C77.9598 35.8356 77.6462 35.9113 77.3001 35.9762C76.9756 36.0411 76.6295 36.0952 76.2617 36.1385C75.894 36.1817 75.5263 36.2358 75.1585 36.3007C74.8124 36.3656 74.4663 36.4521 74.1202 36.5603C73.7957 36.6685 73.5037 36.8199 73.2441 37.0146C73.0062 37.1876 72.8115 37.4147 72.6601 37.696C72.5087 37.9772 72.433 38.3341 72.433 38.7667C72.433 39.1777 72.5087 39.5238 72.6601 39.805C72.8115 40.0862 73.017 40.3134 73.2766 40.4864C73.5362 40.6378 73.839 40.746 74.1851 40.8109C74.5312 40.8758 74.8881 40.9082 75.2559 40.9082C76.1644 40.9082 76.8674 40.7568 77.365 40.454C77.8625 40.1511 78.2302 39.7942 78.4682 39.3832C78.7061 38.9506 78.8467 38.518 78.89 38.0853C78.9549 37.6527 78.9873 37.3066 78.9873 37.047V35.3273Z" fill="white"/>
<path d="M85.3541 20.3691V43.5365H89.9616V20.3691H85.3541Z" fill="white"/>
</svg>
