<svg width="38" height="46" viewBox="0 0 38 46" fill="none" xmlns="http://www.w3.org/2000/svg">
<path d="M19.6924 16.0997C19.6924 12.2706 22.7965 9.1665 26.6256 9.1665H35.2921C36.2494 9.1665 37.0254 9.94253 37.0254 10.8998V19.5663C37.0254 23.3954 33.9213 26.4995 30.0922 26.4995H21.4257C20.4685 26.4995 19.6924 25.7235 19.6924 24.7662V16.0997Z" fill="#009948"/>
<path d="M19.6924 35.2701C19.6924 31.441 22.7965 28.3369 26.6256 28.3369H35.2921C36.2494 28.3369 37.0254 29.1129 37.0254 30.0702V38.7367C37.0254 42.5658 33.9213 45.6699 30.0922 45.6699H21.4257C20.4685 45.6699 19.6924 44.8939 19.6924 43.9366V35.2701Z" fill="#009948"/>
<path d="M18.0978 7.5372C18.0978 3.7081 14.9937 0.604004 11.1646 0.604004H2.49807C1.5408 0.604004 0.764771 1.38003 0.764771 2.3373V11.0038C0.764771 14.8329 3.86887 17.937 7.69797 17.937H16.3645C17.3217 17.937 18.0978 17.161 18.0978 16.2037V7.5372Z" fill="#009948"/>
<path d="M18.0978 26.6036C18.0978 22.7745 14.9937 19.6704 11.1646 19.6704H2.49807C1.5408 19.6704 0.764771 20.4464 0.764771 21.4037V30.0702C0.764771 33.8993 3.86887 37.0034 7.69797 37.0034H16.3645C17.3217 37.0034 18.0978 36.2274 18.0978 35.2701V26.6036Z" fill="#009948"/>
</svg>
